<svg xmlns="http://www.w3.org/2000/svg" width="1021.462" height="499.083" viewBox="0 0 1021.462 499.083">
  <path id="map" d="M262.263,129.649c9.557-6.386,1.843,10.671,0,0Zm-7.714.6c2.571,0,3.986-1.5,3.6-3.557C257.249,127.12,250.178,130.249,254.549,130.249ZM270.021,78.22c2.014-.943,3.214-2.186,5.657-2.443-3.6-3.343-8.529-2.7-13.114-2.657C262.606,77.577,265.606,79.377,270.021,78.22Zm449.7,228.815c-1.671,2.1-.514,13.929,3.943,9.857C726.151,314.664,720.58,307.893,719.723,307.036Zm183.344,151.2c1.114,3.514,3.9,7.714,7.2,8.614a2.836,2.836,0,0,0,0-2.057h2.486c.128-2.957.943-3.6.943-6.386-2.229.6-10.886-1.757-10.629-.171Zm9.214-4.286a3.018,3.018,0,0,0,2.572,2.786c-.043-2.272-.986-2.786-2.572-2.786C912.281,454.122,912.5,453.95,912.281,453.95Zm-10.843-.729c-1.629.771-.557,2.057.6,2.486.086-.257.386-2.872-.6-2.486C901.181,453.308,901.609,453.136,901.438,453.222Zm71.272,24.386c4.843,0,5.957-9,11.786-10.157-2.571-5.357,7.114-4.543.171-8.743-5.529-3.343-3.343,2.314-6.6,5.914-2.872,3.214-8.314,4.029-10.414,7.757-1.586,2.871-1.071,6.043,5.057,5.229Zm-3.729,1.457a5.367,5.367,0,0,0-1.029,1.157h2.4c.129-.814-.086-2.057-1.371-1.157Zm18.943-33.215c0,1.457.129,5.272.129,5.614,0-.343-2.357-.171-2.4,1.586,0,2.229,1.714-.171,2.1,1.243-.086-.171,2.443,5.357,3.857,4.929.514-.171,1.971-2.829,2.828-3.686,4.457-4.157,7.5-9.171-1.457-7.586-.043-2.443-1.029-6.214-2.743-2.529-1.8-1.157-2.057-4.971-4.2-7.114C982.053,434.279,987.924,444.35,987.924,445.85Zm-29.486-52.8c2.272,3.471,4.243,6.343,9.043,6.857C967.1,397.807,960.367,392.965,958.438,393.05Zm-95.958-26.486c-3.771.686,1.929,1.457,3.257,1.329v-1.157C864.881,366.65,861.366,366.65,862.481,366.564Zm33.6,1.5c-4.414,5.486,1.543,18.943-8.314,16.243.043,0-9.043-5.786-9.214-6.257-1.714-3.729,1.8-5.7,2.914-8.614-5.014-.686-9.9-3.257-14.7-3.257.943.857.814,1.5,2.529,2.486-.857-.557-5.914,2.829-7.286,3.686-3.986,2.571,2.229,3.043-4.457,4.371-2.229.386-3.214-2.7-6.814-1.371-3,1.114-3.386,5.057-6.771,5.057.514,1.114.643,2.871,1.243,3.9h-2.614v-2.014c-3.943-.214-5.271,8.186-9.729,10.329-3.386,1.629-8.657,2.1-12.343,3.6-1.672.557-2.743,5.914-4.671,1.457-1.629,4.971-2.014,7.886.771,12.814-5.957-2.7.471,6.471,1.714,9.729,2.486,6.6,4.929,10.929-.086,15.257,3.429,0,5.443,3.771,9.814,3.086,2.529-.343,3.772-3.343,6.6-3.943,2.186-.6,4.543,1.586,6.429,1.071,2.014-.557,2.057-2.143,3.729-2.829,1.586-.643,3.343-2.443,5.143-3.171,1.243-.557,2.357,1.286,3.857.729,5.314-1.971,11.357-5.1,17.571-1.843,3.729,2.014,7.328,16.243,11.314,3.472,2.828.943-.129,2.914.3,5.357,3.514-2.1,2.143.814,1.886,3.986,5.786-1.072,3.214,3.986,7.457,7.457a32.645,32.645,0,0,0,6.814,2.1c2.957.086,2.014-2.871,3.857-2.957,1.843-.043,1.886,3.471,3.129,3.214,5.914-1.286,12.172-3.514,14.357-9.043,1.414-3.6,1.757-7.329,3.986-11.186,4.543-7.714,5.357-15.772,1.2-24.043-.943-1.929-2.143-2.529-3.557-4.029-.986-1.071-.986-2.957-1.629-3.729-.214-.214-3.3-1.071-4.029-1.8-.986-.943-.9-3.129-1.928-4.2-1.414-1.329-4.929-2.314-6.043-3.686-2.657-3.3-3.429-9.771-5.443-12.943-.6-1.029-2.443-1.757-3.429-3.3-1.114-1.843-.514-6.343-3.257-7.029A9.7,9.7,0,0,0,896.081,368.064Zm50.015-5.786c.857,1.286,1.757.857,2.871.429-.557-1.457-3.728-2.314-2.871-.429C946.224,362.45,946.01,362.15,946.1,362.279ZM931.524,352.25c0,1.243,2.914,2.871,3.686,2.7-.686-1.843-2.828-3-2.828-4.757a2.611,2.611,0,0,0-1.157.129A6.423,6.423,0,0,1,931.524,352.25Zm-17.143-1.757c.343,3.814,11.272,1.929,10.243-4.029-.514.086-10.243,5.443-10.243,4.029C914.424,350.964,914.381,350.236,914.381,350.493Zm-49.843,7.457c0,.6,4.243,1.243,2.229-2.829C865.009,355.336,864.238,356.321,864.538,357.95Zm-15.343-1.8c.3,1.543,1.929,1.2,3.3.643C851.338,355.764,850.781,356.493,849.195,356.15Zm25.157-5.957a4.432,4.432,0,0,0-1.8,3.3C872.552,355.936,878.166,347.664,874.352,350.193Zm-4.157-4.757c2.7-1.2,6.129,1.157,8.786,2.4,2.229,1.029,4.372.386,5.914,3.129,2.1,3.643-.257,2.657.172,4.757.128.557-2.914.471-1.629,2.914.6,1.114,4.029-1.457,5.186-1.157,3.728,1.071,5.186,4.414,9.857,3,2.828-.857,2.7-4.971,7.414-3.3,1.843.686,2.229,2.957,3.9,3.857,3.129,1.843,1.586,1.286,5.829,2.271,6.472,1.457,4.329,1.929,1.157-2.529-.471-.643-3.6-.257-4.157-.729a21.325,21.325,0,0,0-1.328-3.814c-.129-.471-4.029-3.3.986-2.829-.943-1.8-5.571-5.186-7.843-6.471-4.372-2.486-7.757-3.343-12.6-4.8-6.9-2.229-6.514-.9-11.957,0-3.386.6-7.072-1.071-11.786.171.514,1.843,1.2,3.6,2.1,3.129Zm-23.657-6.386c-2.614.557,2.357,1.2,3.257,1.029C849.795,338.364,847.952,338.793,846.538,339.05Zm30.814-2.271a14.51,14.51,0,0,1,.3,3.171h2.957c-.471-1.414-1.243-.729-1.243-3.171h-2.014C877.4,336.993,878.081,336.693,877.352,336.779Zm-12.514.171a2.3,2.3,0,0,0-1.929.6c3.086,1.8,6.429,4.414,10.543,2.529C870.024,333.778,867.966,338.15,864.838,336.95Zm-.729-1.029c4.071-4.072-6.986-1.329,0,0C864.581,335.45,863.852,335.879,864.109,335.921Zm-3,3.686c1.072.514,1.543,3.257,2.014-.257C861.624,339.607,861.452,339.736,861.109,339.607Zm-5.314,3.429c0,1.114,6.214,2.1,8.014,2.1C863.424,341.793,856.309,342.736,855.795,343.036Zm-2.4.428c-.771-.171-1.586-.386-2.443-.557,1.457,3.471,3.086.943,2.443.557C853.009,343.293,853.609,343.593,853.395,343.464Zm3.686-16.157c-2.143,2.957-3.643,3.343-3.471,7.543.3,5.914,1.757-1.243,5.271-.729.214-1.972-.814-3.686-2.572-3.557a8.828,8.828,0,0,0,.772-3.257C856.781,327.736,857.081,327.607,857.081,327.307Zm-27.943,15.9s3.043,3.857,2.657,3.429a30.9,30.9,0,0,0,.6,3.857c2.143-1.414,1.629-5.7,1.629-8.014h1.8c.214.943,3.429,8.143,4.671,7.543,2.271-.986-1.929-8.914-3.214-10.586C851.038,339.436,829.138,331.421,829.138,343.207Zm17.229-12.643c-2.314.857-15.472-.9-14.872,4.629,4.328-2.014,5.486-1.586,10.114-2.529,1.414-.343,1.886,1.286,3.6.6.9-.429,4.371-4.029,1.157-2.7C846.195,330.65,846.966,330.307,846.366,330.564Zm-3.086,31.972c0,2.614,10.029-2.314,11.143-3.429C850.481,357.136,843.923,361.379,843.281,362.536Zm-1.243,2.529c-1.2.171-1.5.643-.857,1.5h1.757c.172-.729.128-1.843-.9-1.5C841.652,365.236,842.252,364.979,842.038,365.064Zm-9.343-6.086c2.571,2.614,10.714.471,13.672-.771C843.966,357.779,833.809,357.779,832.695,358.979Zm-1.072,1.929c-3.729,1.157,3.129,3,4.329,2.914-.514-.6-3-3.171-4.329-2.914C831.195,361.036,831.795,360.864,831.623,360.907Zm-7.457-2.529c-2.1.171,5.357.6,6.9.6-.471.129-.557-.129-.3-.771a33.726,33.726,0,0,0-6.6.171C823.823,358.421,824.638,358.336,824.166,358.379Zm-32.229-5.014c3.386,2.657,8.186,3.471,14.014,4.029,4.586.514,10.329,2.914,15.257,2.186-1.372-2.743-4.243-3.514-7.414-2.871.214-2.1,1.714-1.114,3.257-2.014A125.261,125.261,0,0,0,791.938,353.364Zm-9.086-4.329c-.643,1.371-.214,2.057,0,0Zm21.129-20.272c-3.943,2.786-1.457,7.757.729,10.671,3.257,4.414,4.586,3.943,10.714,4.971,6.214,1.071,4.243,2.657,7.757-2.529.171-.257.814-4.372,1.457-5.529.943-1.5,4.328-2.186,5.357-4.414-3.943-2.571-2.829-3.257-3.729-8.871,3.043.129,2.1-1.843,5.057-2.914.257.729-7.157-5.143-6.514-5.229-2.357.171-4.072,4.2-5.914,5.829C814.823,324.393,807.666,331.55,803.98,328.764Zm-31.414,8.786c.171,1.971,3.429,6.857,5.357,7.243-.386-2.657-5.357-7.029-5.357-7.243C772.609,338.021,772.566,337.293,772.566,337.55Zm-4.757-6.557c.771,1.414,2.186,1.843,2.829,3.3,0-1.8-.471-3.086-2.357-3.9C767.723,331.85,768.237,331.121,767.809,330.993Zm-2.229-3.9c0-.428-.9-1.714-.9-.386a1.792,1.792,0,0,0,1.8,1.929Q767.059,327.543,765.58,327.093Zm1.071-6.814c-1.672,0-2.614-1.672-4.2-1.457.729,3.471,6.214,6.9,8.057,9.257,2.871,3.557,5.272,8.829,8.314,12.814,2.1,2.614,7.029,9.857,9.814,9.9,6.214.171,2.7-5.829,7.586-7.329-.557-3.857-4.114-5.271-7.157-3.086-.343-4.414-16.586-19.414-22.414-20.1C766.395,320.278,767.295,320.364,766.652,320.278Zm76.929-10.286c-3.257.343-6.043,2.486-4.328,6.086,2.614-6.257,6.386.943,10.543,2.743-1.457-3.129,1.157-3.814,1.2-3.9.086-.6,1.329-8.186-1.328-8.186s-3.129,5.271-6.086,3.257C843.109,310.078,843.795,310.164,843.581,309.993Zm-8.786-13.8c-.086,1.071,3.343,9.514,5.786,9.086-1.243,2.743,3.214,4.629,2.1-.771-.514-2.314-5.4-7.929-7.886-8.314C834.752,296.578,834.923,296.278,834.795,296.193Zm4.286-.429c3.729,2.571,6.214,7.586,10.2,8.357,0-4.543-4.2-5.614-4.2-9.643-2.443,0-3.643,1.286-6,1.286C839.552,296.107,839.552,295.764,839.081,295.764Zm-5.657,2.657c-2.186,4.286-7.886,8.571-9.086,12.086,4.971,0,9.086-7.157,9.086-12.086C833.338,298.635,833.423,298.935,833.423,298.421Zm2.314-17.443c-4.414,2.4-3.3,11.357,1.714,12.943C837.238,291.05,843.623,280.978,835.738,280.978Zm2.872-18.772c0-1.457-5.871,3.386-5.014,8.872h1.757C835.352,267.392,838.609,265.592,838.609,262.207Zm75.943-66.6c-2.957.557-4.886,2.957-8.786,3.257-4.286.343-6.257-.471-10.714-3-.171,1.329-1.929,11.486-3.729,7.757-.814,1.414-3.472,7.843.857,5.786v1.5c-2.614.471-3.857,8.914-6.814,12.257a22.438,22.438,0,0,0,0-2.4,8.9,8.9,0,0,0-2.957,4.414c-.686-.9-1.757.686-1.329-1.929-1.928,1.414-2.657,3.3-2.957,6.129-5.914-2.614-17.014,2.357-18.086,8.871,1.157.086,2.743,0,3.429,0,0,2.871-3.172,4.2,1.243,5.443,0-3.043,4.886-7.457,0-7.886,1.029-3.086,8.443-3.086,11.571-3.643-3.386,2.143-8.829.086-7.543,5.829a24.145,24.145,0,0,0,7.243-4.157c1.414,3.171,5.229.686,4.629-2.057,11.743-1.371,9.557-1.929,12.343-11.786,1.543-5.443,3.386-9.686-1.757-13.972,3.472-.686,9.3,2.614,9.086-1.2,2.529.514,14.271-5.957,14.271-9.214C914.338,195.606,914.552,195.778,914.552,195.606Zm5.529-2.829c-1.286.171-1.886,1.071-3.043,1.629,1.843,1.071,2.357-.086,3.043-1.629C919.867,192.778,919.824,193.335,920.081,192.778Zm14.572-15.943a13.121,13.121,0,0,1-1.8,3.429C935.252,179.321,934.61,177.349,934.652,176.835Zm35.572-15.643c-.3,0-.857-1.5-1.629-.857a4.5,4.5,0,0,0-.171,1.714C968.9,162.178,970.781,162.349,970.224,161.192Zm-4.029.471c-.6-1.671-.428-2.7-1.971-3.857,0,1.543.343,2.914.471,4.5,1.029.257,1.8.3,1.5-.643Zm-7.8-16.157c1.157,0,1.886-1.329,1.972-2.143-2.571-.986-2.829.6-3.857,2.143A4.655,4.655,0,0,0,958.4,145.506Zm68.786-20.743c2.486.429,5.957,1.5,8.486,1.157-2.143-4.114-6.729-.943-8.486-1.157C1027.653,124.849,1026.924,124.72,1027.182,124.763Zm-26.314-36.472c3.214.729,7.2-.729,10.543-.729-.9-1.329-3.6-3.257-5.871-3.129-.814.043-7.2,3.214-4.671,3.857C1001,88.334,1000.567,88.249,1000.867,88.291Zm-93-22.757c2.914,1.157,12.6,4.671,12.6-.771-4.157-.214-10.5.386-12.214-2.486-.257.257-1.329,2.871-.386,3.257C908.038,65.577,907.609,65.406,907.867,65.534ZM890,75.049c3.6.6,6.814-.171,10.243,1.029C899.081,71.02,893.467,72.306,890,75.049Zm2.957-3.729c1.971,0-1.672-1.671-2.786-1.629C890.167,71.491,891.367,71.32,892.952,71.32Zm-11.143-6.686c3.214,4.714,21.386,3.429,22.629-2.529-2.914-.557-6.557-2.271-6.557,2.443a6.333,6.333,0,0,0-1.8,0c3.129-6.557-3.729-2.829-6-2.871C885.452,61.506,884.3,59.277,881.809,64.634Zm-3.129-1.2a2.194,2.194,0,0,1,0-1.8c-3.3-.429-1.628,3.043,0,1.8C878.638,63.263,878.381,63.649,878.681,63.434Zm-1.628,6.386c.986,2.443.857,3.9,3.857,3.514A19.894,19.894,0,0,0,877.052,69.82Zm-79.2-21.857c-.814-1.586-3.343-1.971-5.014-1.157.428.471,5.743,2.957,5.014,1.157C797.723,47.706,797.938,48.177,797.852,47.963Zm-34.629,6.986c.986-.343,2.1,0,3.129,0C765.966,51.22,764.38,54.177,763.223,54.949Zm12.9-5.357c.6,0,14.7-3,15.043-3.386,3.472-4.586-6.943-4.114-7.757-4.457.728-.771,1.029-.771,1.243-1.671C778.48,39.006,775.48,49.591,776.123,49.591Zm-9.471-14.7c-10.371,1.5-8.914,7.329.6,8.229,7.243.686,7.757.857,7.372-3.471-.471-5.871-.043-3-5.486-3a3.376,3.376,0,0,0,.771-1.757C768.795,34.891,767.723,34.848,766.652,34.891Zm-8.957.6c4.114,2.186,9.943-3.557,12.343-5.1-5.4-2.571-12.814-2.871-17.143,2.829.257.514,3.771,1.757,4.8,2.271C757.909,35.62,757.566,35.363,757.694,35.491Zm-1.2,1.329c-1.971,0-3.386-1.157-5.443-.771C751.309,42.091,759.237,36.82,756.494,36.82Zm-6.086-9.686c-4.5,0-1.029,1.843-1.329,2.357C748.18,30.991,754.823,27.134,750.409,27.134Zm-116.1,69.772c-2.614-.429-6.9-3.471-5.014,2.7,1.672,0,4.714-.857,5.014-2.7C634.137,96.906,634.265,97.12,634.308,96.906Zm11.443-21.557c-2.614-.257-8.057,6.643-8.057,10.243,1.543-.3,2.571-1.286,3.471.6.557-.257.771-.643.6-1.157,3.386,1.714,1.029,3.643,2.872,4.457,2.4,1.029,6.986.643,9.643.643-.343-3.6-4.371-4.757-4.629-8.1-.343-4.157,3.129-6.557,5.657-9.086a39.529,39.529,0,0,1,20.229-11.314c2.529-.6,13.329-2.829,12.214-5.614-1.672-4.114-7.929.471-10.114,1.157-5.4,1.714-23.357,2.186-23.357,8.786a12.157,12.157,0,0,0-3.3,0c2.786,4.757-6.986,4.586-6.086,7.757.986-.214,1.286-.6,2.4-.471-.557,1.414.9,2.314-1.543,2.1C645.365,75.306,646.222,75.391,645.751,75.349Zm44.786,1.329c2.357,0,3.643-1.457,4.286-1.8C696.066,74.234,686.808,76.677,690.537,76.677ZM669.28,29.491c3.343,5.057,5.614.257,9.386-.429C675.194,27.091,672.537,30.606,669.28,29.491Zm-7.286,0c0,1.757-1.2,1.243-2.1,2.7a17.585,17.585,0,0,0,8.357.386C665.766,29.448,666.023,27.177,661.994,29.491Zm-1.029,5.4a9.109,9.109,0,0,1-2.4.429c.429,2.057,1.757.9,3.429.6-.171-.814-.043-1.286-1.029-1.029C660.708,34.934,661.18,34.848,660.965,34.891Zm-10.414-.9c1.371,1.2,1.586,3.043,3.729.3,0,3.3,4.286.214,4.886-.3a2.286,2.286,0,0,0-.171-1.2C656.337,32.277,652.18,33.477,650.551,33.991Zm-8.529.3c2.486-2.529,7.714-3.6,11.486-2.7-.857-5.357,4.886,1.886,5.657-3.129a21.665,21.665,0,0,1-3.729,0c.514-.729,1.457-2.443,1.8-2.786-2.057,0-3.386,1.286-4.5,1.629a29.863,29.863,0,0,0-3.986,1.157c-1.114.686-1.457,2.186-3,3.3C643.694,33.263,642.665,32.063,642.022,34.291Zm-11.871-4.029c-4.371,0-5.486,1.543-9.643.729.171,3.214,5.657,1.029,8.186,1.029-5.186,3.771,3.557,4.714,6.129,1.371C638.894,27.863,634.994,30.263,630.151,30.263ZM544.908,35.32c.943,2.443,6.343-.814,7.414,1.929-1.457-.086-3,.086-4.5,0,2.743,7.543,17.571.814,21-1.2-3.343-3.686-8.014-.6-10.971-1.5.514-1.114,1.286-.9,1.029-2.229-3.514,1.414-2.614.214-4.629,3.729-1.329-3.386-10.886-4.157-9.343-.729C544.993,35.62,544.736,34.977,544.908,35.32Zm-6,11.314c0,.814-7.929.343-8.914,3.557,1.929-.386,7.971-1.8,8.743-.729-1.2.771-7.671,1.843-7.757,2.357-.171,1.029,5.657,3.857,6.9,5.529,3.857-2.914,7.543-8.572,7.543-12.6a15.315,15.315,0,0,1,4.2,0c-.471,3.643.429,1.071,1.971,3.171,1.114,1.5-1.2,2.829-1.2,4.371,4.114-2.529,4.5.857,6.086.6,1.629-.257,4.586-2.014,6.257-2.4-1.8-2.4-3.643.343-3.643-3.129-1.757.257-13.586-6.814-13.929-7.886a2.72,2.72,0,0,1-2.4,0,11.486,11.486,0,0,0,1.071-2.357c-4.457-2.143-4.586.3-6.686.9,1.029-.3-1.586,2.529-1.886,2.614.686-.257-1.114-3.557-1.414-3.643.429.129-4.971,2.1-4.886,2.057.557-.943.814-1.929,1.328-2.7-2.614.557-13.714,3.214-4.886,4.457,0,1.114.214,3.986-.171,4.929-1.629-.814-1.414-2.229-3.429-2.7.771,1.586,3.986,6.857,3.986,2.1,1.886.171,1.971,2.957,4.628,2.057,1.029-.3,1.629-2.229,2.657-2.357.086,0,5.529-.514,5.829,1.8C538.908,46.72,538.822,46.12,538.908,46.634Zm368.188,96.3c7.457,0,8.7-3.171,13.843-2.057,2.871.514-.514,2.529,2.4,3.214,4.243,1.029,2.829-3.171,6.514-.3.3-1.971,1.586-.386,3.257-.6-.9-3.729-2.314-.386-.857-4.286.643-1.714,4.5-5.571,5.872-6.343,4.8-2.657,8.871-1.629,8.871,3.814,6.471-1.2,8.1-10.029,14.271-8.829-4.114,3.343-5.529,8.614-10.114,12.386-5.743,4.757-13.071,7.414-15.129,13.629-1.457,4.586-1.329,11.014-.472,15.129,1.2,5.786.6,6.686,4.843,4.414,4.586-2.4,4.971-12.686,12.128-10.843-1.928-3.643-.471-8.614,3.686-5.957-1.371-3-.214-5.743-.6-7.586-.257-.9-1.971-.257-2.7,0,.128-1.457,2.528-7.2,3.429-8.014,2.486-2.271,2.786-.986,5.872-1.671,1.671-.343,1.071,1.114,2.186,1.029,1.543-.086,1.972-2.614,3.257-2.657,1.586-.043,3.086.471,4.714.3,3.729-.429.686,2.229,3.6,2.786,0-7.029,16.843-11.4,21.6-12.772,4.328-1.2,4.8,3.814,3.3-2.657-1.372-5.786-4.329-3.514-8.057-5.957-2.143-1.586,8.828-1.243,8.786-1.2,3.172-1.243,4.2-3,2.7-6.257,2.186-.129,2.529,2.186,3.257,2.271a51.071,51.071,0,0,1,5.657,1.157c3,1.414,2.229,2.357,6.086,3.257,5.271,1.329,1.243.943,4.029-.129,2.314-.9.471-3.129,1.8-4.286,1.157-1.071,9.214,2.314,5.957-3.471-1.2-2.057-9.471-3.471-11.486-2.657,1.843,1.243,2.314,4.243-.772,2.057-1.071-.771.471-3.729-.943-4.886-.772-.6-2.186-.129-2.786-.643a52.223,52.223,0,0,0-5.443-3.471c-3.129-1.629-5.1-2.743-8.357-4.371-6.686-3.257-21.129-5.743-25.414-1.329,7.457,3-11.786,5.743-1.543-.9-3.086-2.357-5.657.857-8.786,1.286-3.772.514-10.372.943-13.671-.686a18.334,18.334,0,0,0,0,3.429c-4.714-5.271-4.5-11.314-14.272-10.757-3.643.257-7.157,1.414-10.886.643-4.8-.986-5.743-3.429-9.943-3.9.857-1.071-.728-.643,1.457-1.757-6.343-3.557-13.629,5.4-10.843-1.929-3.129,0-6.343-1.757-9.643-1.8-6.257-.129-4.8.857-10.586,1.8,0,2.571,3,2.4,3,5.186a36.867,36.867,0,0,0-7.029-1.114c.557.771,2.014,1.929,1.5,3.214-2.871-.557-3.386-2.743-6.086-3.257.128,0-7.071-.086-7.457.043-3.9,1.029-3.214,4.843-6.214,4.843.086,0-5.571-4.886-6-5.957-.514-1.286,1.628-5.486,0-7.457-2.572-3-4.629.257-7.286-.429-5.914-1.543-7.757-5.571-7.757,2.571-4.586.043-7.2.471-11.314-1.243-1.5-.6-2.4-2.614-4.286-3.086-3.6-.943-10.029.771-13.929.771V72.349c-1.372.471-3.6,1.843-4.843.6.343-.043,6.643-3.086,3.728-3.857-3.343-.857-5.143,4.329-9.514,3.6.643,3.9-5.914,3.557-9.429,3.557,3.771-.386,20.357-10.457,20.743-12.514,1.586-8.957-15.386-8.186-19.243-6.686.771-.943,1.371-1.114,1.371-2.529-2.228.214-4.371-.471-6.557-.471a22.7,22.7,0,0,1,2.571-3.257c-8.614-.643-8.957,2.314-14.314,5.057.686.9.557.643.728,1.629-5.871-1.371-6.343,2.614-11.271,3.171-1.8.171-5.057-1.971-7.757-1.671-.514.043-6.043,3.429-8.486,4.029a54.348,54.348,0,0,0-7.543,1.929c-.943.343-6.172,2.186-6.729,3.043-2.486,3.686,4.543,1.2.214,4.371-4.8,3.514-13.714-.986-18.557,3.3,1.286,3.086,9.943,8.1,5.057,8.486-1.371.086-3.171-2.529-3.986-2.829a16.323,16.323,0,0,0-9.986-.6c1.371.643,3.129.514,3.129,2.529-11.057-.729,1.8,1.843,1.329,5.357-1.8-2.786-6.6-.986-8.743-3.729-.771-.943.086-5.657-.771-7.414a1.372,1.372,0,0,1-1.2.257c0,5.529-3.3,3.3-3.857,6.557,0,.043.9,9.129,1.114,9.472,3.171,5.186,2.314.514,6.214,2.014,4.8,1.886,4.543,4.414,4.543,7.586,0,1.114,3.771,1.714,4.371,1.8-6.214,4.071-4.971-11.357-13.371-4.5,0,0,.3,4.071-.343,5.057a8.967,8.967,0,0,1-4.029,3.514c-4.543,2.529-4.457,1.5-10.243,1.114,1.286-1.843,5.957-1.543,8.357-3.557,2.143-1.929,3.686-4.114,3.686-7.243-3.429.3-4.671-13.286-4.328-17.1h1.929c.986-4.971-7.157-6.257-10.714-3.6-.471.386-6.129,9.471-6.257,9.9.986-2.7,1.029,6.471.171,4.843.771,1.586,2.229,1.157,3.3,3.343.643,1.414,3.814,1.371,3.257,3.6-1.029,3.857-4.929-1.457-5.057-1.5-4.371-1.157-7.714-2.743-11.914-4.157-2.186-.729-10.029-4.8-11.272-4.629-5.486.857,10.329,7.157-.257,11.314,0-8.271-17.271,6-14.057-3.429-4.586,2.7-9.771,2.786-14.357,5.871-.814.557-10.714,9.643-10.072.471,7.543.257-1.243-4.8-5.529-4.8,1.886,1.843,3.257,11.314,1.372,12.471.429-.257-4.457-1.414-5.829-1.114-1.114.214-4.114,3.6-6.257,3.771.6.857,2.229,3.429,2.1,4.629-3.043-1.543-6.643-.043-9.214-3.3-6.129,3.343,3.129,3.729,3.129,5.657,0,1.5-4.671.814-5.057.6-4.586-2.186-2.271-1.629-4.329-5.057-1.714-2.914-5.4-6.643-8.186-10.286,2.486.471,28.543,10.8,25.457-1.329-.729-2.914-7.8-5.614-10.543-6.6-4.286-1.586-10.629-.429-12.514-1.586,2.186-4.586-6.6-3.086-8.614-4.971,3.343,0,1.629-1.543-.086-2.443-4.329-2.271-2.571.6-5.614.6a17.766,17.766,0,0,0,.943-2.914,11.065,11.065,0,0,0-4.114,0,34.362,34.362,0,0,0,0,3.643c-.771-1.843-1.414-1.5-2.914-2.829-.514,3.257-1.971,4.629-1.971.471a5.767,5.767,0,0,1,2.1-.043V87.091c-1.243.214-9.3,4.5-6.386,1.329-6.257-.6-5.7,2.786-2.4,4.629-1.8-.729-4.157-.129-6.043-.729,0,1.714.3,2.186-.943,3.129,0-2.143-3.086-4.071-5.186-3.857.857,2.957-1.971,7.543-2.486,3.257-3.643,3.643-.257,1.029-1.543,4.929-3.043-1.243-2.314-.386-3.257-3.471-1.243.471-1.971,1.8-3.9,2.7.557.986.471.514.471,1.5-2.786,0-4.457,1.286-5.957,3.257,3.129-.986,7.671-3.857,10.971-2.229-4.371,1.029-10.886,8.486-11.7,13.843-1.457.129-3.686,1.586-4.929,2.829.729,0,1.629-.043,2.357,0-.343,2.871-7.114,5.829-9.214,5.357a3.971,3.971,0,0,0,.3,2.229c-8.057,1.714-9.086,6.386-10.714,12.214,6.729-.214-2.357,4.029,3.729,4.543-.129,1.671-.943,1.886-.729,3.471,6.557,0,9,.771,13.372-4.757,2.914.514,5.057,10.843,7.629,13.714.686.814-1.629,2.271.214,2.957,4.243,1.671,2.4-1.414,4.2-2.057,3.257-1.157,5.014-2.271,7.757-3a1.829,1.829,0,0,0,0-1.5c-1.586.214-2.057.171-2.957-.6.9-1.414,4.757-6.257,5.057-6.986.943-2.486,4.586-4.629-.9-4.629,0-3.943-3.386-7.586.729-12.343,2.057-2.4,5.872-2.571,7.757-5.057,1.243-1.629,1.286-6.343,4.2-8.186,2.272-1.371,7.457.986,7.843,3.686.857,5.743-17.786,9-9.214,18.943,6.043,6.986,16.586-1.5,23.657,2.529-3.943,4.029-9.6,2.271-14.272,2.914a79.547,79.547,0,0,0-8.4,2.443c.686.3,1.2.6,1.8.9a11.069,11.069,0,0,0-3.686.9c1.629,4.243,4.714-.643,5.786-.171,2.057,1.029,2.229,2.1,4.029,3.3-5.1,6.471-4.757-1.071-7.757,0-3.6,1.286-3.343,9.043-3.428,10.971-3.043,0-6.986-1.671-4.414,2.571-4.629-4.714-7.157.3-12.214.771-1.714.086-9.086-4.2-9.6.557a9.793,9.793,0,0,1-4.843-1.629c.514-5.186,7.886,2.143,7.157-7.029-1.114.514-4.714,1.757-5.357,1.5a14.19,14.19,0,0,1,.857-3.129,2.1,2.1,0,0,1-1.757,0c.686-4.886-.557-5.743-4.329-1.929-2.657,2.7-.729,5.571-.857,8.186-.3,6.686,1.671,3-3.514,6.043a24.313,24.313,0,0,1-10.2,3.086c3.814,4.886-3.6,4.371-6.429,6.514-.257.214-2.571,5.571-3.429,5.786-2.786.857-4.5-1.671-6.343-1.5,4.329,7.5-4.286,2.271-6.857,4.243-3.171,2.443.814,1.629,1.843,3.086,1.457,2.057,3.171,2.871,4.671,5.957,8.443,16.886-12.043,6.471-20.4,9.943,1.629,5.443-.729,11.743.6,16.972,1.2,4.714-.386,1.8,3.729,4.457,2.614,1.671,3.943.086,6.386,3.129.557-.643.471-.9-.257-.857,4.243-1.543,9.557-3.3,12.943-6.429,1.414-1.286,2.057.343,3.129-1.114.6-.9-1.286-2.357-1.2-2.443.514-.729.9-3.686,1.929-4.929,1.371-1.671,7.414-3.429,8.443-4.329,1.286-1.029-.857-3.214,1.414-4.586,1.886-1.157,5.314,1.457,7.414,1.114.771-.129,4.714-4.886,6.857-4.543,2.872.471,5.743,5.957,8.143,7.886,7.2,5.614,19.929,13.286,1.971,13.286,4.8,8.4,12.386-.343,14.443-5.314h-2.571a6.441,6.441,0,0,1,.128-1.586,28.2,28.2,0,0,0,5.4,1.029c-1.843-3.557-6.986-7.671-11.443-8.314.429-2.786-4.2-6.3-6.3-6.171.643-9.343,6.686-1.029,11.271,2.314,3.129,2.314,7.243,3.9,9,7.114,1.071,2.014,2.571,7.371,3.729,9.557-1.243-.386-1.543-.643-2.7-.429.986,2.529,2.314,3.771,4.029,1.757,1.8,9.214,7.929-.686,11.314-1.2a2.831,2.831,0,0,0-2.4-1.757,2.1,2.1,0,0,1,0,1.757c-1.757,0-5.443-5.486-4.886-6.686,1.8,1.029,2.786,1.586,4.757.729a1,1,0,0,0-1.029-.729c6.729-9.9,10.457,15.814,11.486,15.814,1.2,0,.943-3.343.943-3.771,2.571,2.271,4.671,1.843,6.729,2.1-2.143-.257,3.429-1.414,3.3-1.414,2.143-.086,3.086,2.614,6.557,1.757a17.168,17.168,0,0,1,0-2.571c6.557,1.329,7.071,3.6,4.672,10.543-.814,2.4-3.857,6.343-5.957,7.286-2.529,1.071-4.929-1.5-7.329-.257,3.729,1.757,6.343,12.943,10.543,8.614,6.343,6.6,7.886,15.643,12.043,22.586,2.614,4.371,8.014,7.8,10.286,12.814,3.043,6.771-1.029,10.886,7.586,11.057,3.814,0,8.4-3.686,12.214-5.271,4.329-1.757,6.471-3.6,9.943-5.186,4.5-2.057,7.157-1.157,10.243-4.757,1.5-1.629,4.5-5.7,6.429-4.929,0-4.157.086-4.329,3.129-5.657-.343-1.971-3.729-4.243-5.229-5.486-2.657-2.314,0-4.714-3.857-.9-.429-1.8-.943-5.743-2.357-6.814-1.671,2.014-2.143,2.186-2.4,5.357-5.957-.514-15.257-.3-4.329-2.271-.171-.686-8.529-3-8.957-3.257-1.286-.943-5.271-5.314-5.614-7.286-1.114-6.857,2.186-4.586,6.257-1.757,5.014,3.429,6.729,5.014,12.643,6.943.986.343,3.386-.343,4.757,0,1.071.3,1.286,2.657,2.743,3.257,2.614,1.286,9.214,1.843,12.3,1.971,7.157.257,9.172-.386,14.871,2.914,3.129,1.757,3.429,3.943,8.057,4.843-8.186,0,1.2,4.243,3.086,4.886,3.086,1.029,1.457-4.2,4.8.471,1.629,2.186.3,5.014.729,7.457.857,4.757,2.571,8.572,4.329,13.029,1.157,3.043,3.3,12.9,6.214,14.614,3.086,1.714,6.214-1.371,7.929-4.929,1.157-2.4,1.157-5.143,1.457-7.843.171-1.414-.386-3.986.086-5.186,1.543-3.986,1.2-.086,4.114-2.914,5.572-5.357,12.129-13.5,17.271-16.329,1.972-1.114,10.714-2.914,10.843-2.829,1.671,1.071,5.528,9.729,5.528,11.7,5.1,0-.771,4.286,2.957,7.2,2.529,1.971,5.357-2.229,5.829-2.1,3.986,1.114,6.729,11.571,6.643,15.857-.043,2.314-3.557,4.757-2.014,8.657.943,2.357,4.543,4.543,5.829,7.5,1.543,3.6,4.757,16.543,11.657,13.243-2.314-4.072-2.314-11.272-4.714-14.229-3.471-4.157-7.543-3.943-8.486-9.986-.214-1.371-1.543-7.371.686-9.257,3.643-3,.643-.729,4.2,1.2,3.086,1.671,2.829,1.586,5.571,5.014.643.814,2.871,1.414,3.214,1.929,1.029,1.671-.3,3.129,1.2,5.7,2.957-4.2,7.457-5.271,9.814-8.486,4.371-5.957,1.629-10.929-1.929-15.557-5.4-7.029-6.814-15.557,5.657-15.557.814,3.6-4.586,7.543-2.529,9.386,5.143,4.5,6.214-8.7,6.086-8.614,2.229-2.014,7.029-2.143,9.557-2.957,3.686-1.157,4.886-1.971,7.971-4.286,4.329-3.257,12.257-10.329,13.286-16.114.728-4.286-1.5-1.629-1.929-4.543-.257-1.586,1.286-1.243.729-4.114-.643-3.429-5.443-7.671-5.357-10.157.171-4.714,5.014-3.129,6.729-5.657,1.5-2.186,1.5-2.057-2.957-3.729-1.971-.643-1.457,2.314-3.986,2.314.686-5.572-6.6-1.671-3.386-6.857-.171.386,5.786-2.271,6.129-2.443,6.514-2.443,4.586-3.257,1.929,3.6,1.928-1.071,7.071-3.814,9.257-2.829,4.543,2.057.943,2.743,1.328,6.514,7.029-2.914,4.886,8.229,4.157,11.614,5.014.514,10.714-2.829,10.586-7.671-.086-4.329-5.614-4.843-4.5-10.929.257-1.2,2.486-.3,2.7-.857.086-.171.771-4.886,1.2-5.4.986-1.414,2.7-4.2,4.543-5.014,1.114-.471,5.057.429,7.071-.171,2.657-.729,3.386-1.457,5.443-3.3a64.482,64.482,0,0,0,10.029-11.743c2.657-3.986,1.929-7.157,3.729-11.271,5.786-13.543,3.172,13.2,3.172,16.929,1.071-1.114,1.928-.514,2.872-2.7,1.371,1.243.171,2.271,3.043,2.4-.814-5.443-6.643-10.243,1.457-10.243.214,0-3.857-18.514-4.029-20.7h-1.157c.214,4.414-1.243,4.114-1.243,8.229-3.386-2.057-2.7-6.343-8.914-8.229-.686,4.543-2.872,3.043-4.757,0a5.66,5.66,0,0,1,0,2.4c-2.614-.343.043-2.057-1.928-3.729-4.157,4.2-.086-2.143,1.457-3.857,2.357-2.571,4.843-4.371,7.371-7.543C894.2,143.363,899.038,142.935,907.1,142.935Zm-433.8,2.786a5.5,5.5,0,0,0-3.129,3.429c1.243-.3,5.4-3.857,3.129-3.429C472.736,145.892,473.465,145.72,473.293,145.72Zm3.129,33.343c3.043,0,5.271-2.1,6.986-2.357,2.657-.429,6.386.814,8.529-.129a7.156,7.156,0,0,0,3.943-8.829c-.6-2.143-2.229,1.286-2.314,1.2-1.029-1.029-.857-2.7-1.629-3.386-1.371-1.2-3.214-3.943-4.971-6-2.657-3.171-3-2.357-3.429-4.929-.257-1.629,6.643-8.143-3.557-5.186.857-1.414.986-2.614,2.571-3.557-3.343-3.343-4.843,1.8-6.086,2.829-.214.214-6.986,2.486-1.671,3.386-.471,1.543-2.186,3.857-2.1,4.8,1.757.171,3.986,1.586,4.457-.3-.429,5.786,2.614,2.614,4.8,7.286,2.486,5.4-2.571,1.714-5.229,4.929a28.688,28.688,0,0,0,2.957.3c0,1.629-3.986,2.314-2.657,3.857.814.943,5.014-.471,6.386.9C482.893,174.306,474.579,179.063,476.422,179.063Zm-2.529-15.3c6.6-.943-10.5-9.472-6.557-1.5-3.129.557-7.371,4.929-2.186,4.671-6.729,9.771,2.614,3.3,8.314,4.543A69.053,69.053,0,0,0,473.893,163.763Zm159.215,226.63c0-5.743,4.114-17.529-2.657-20.229,0,2.014-2.657,6.686-3.857,7.8-2.486,2.314-6.386,1.329-8.957,3.814-1.971,1.929.257,7.886,0,9.471-.471,3.043-1.757,3.386-2.4,7.157-.771,4.929.343,12.171,6.9,10.714,6.257-1.372,4.243-3.3,5.357-8.914.086-.643,1.672-7.029,1.8-7.157C629.765,392.364,633.108,391.336,633.108,390.393ZM583.694,248.364c-2.829-6.771-4.457-4.157-10.714-4.929-9-1.071-15.943-3.986-24.386-5.914,0,8.186.171,6.686-5.357,6.771,1.114-.086-4.843-1.757-4.286-1.5h-4.329a6.577,6.577,0,0,1-.9-2.4c-2.614-.9-10.586-2.186-12.214-4.414-3.043-4.071,3.429-4.843-2.1-8.4,1.457-1.2,1.286-1.371,3.3-1.8-2.786-4.757-10.5-.343-14.614-.257-4.329.086-8.957-1.843-14.529.6-3.771,1.586-6.343,3.814-11.314,3.686-6.043-.086-9.257-4.286-9.257,3.557h-4.457c2.014,7.243-3.3,2.529-4.457,4.929-1.886,3.814-1.243,8.314-2.957,10.757-1.071,1.414-4.971,3.343-6.6,5.357-1.714,2.057-3.729,5.529-5.614,8.271-1.843,2.786-9.386,9.814-8.357,14.014.3,1.157,4.543-.514,5.186.9.6,1.114-.814,1.671-.557,2.357,1.157,3.086-.814,8.186-1.071,11.314-.3,3.814-.6,7.071,3.6,11.443a188.275,188.275,0,0,0,13.714,12.986c1.714,1.5,2.529,4.929,6.214,5.657,4.157.771,4.714-.986,8.614-1.5,3.429-.386,6.043,1.114,8.4,1.029,4.929-.171,4.586-2.057,8.614-3.429,3.257-1.114,10.286-.814,12.171,0,2.957,1.329,2.229,3.514,6.6,4.5,7.629,1.671,7.2-2.1,7.372,5.957.086,3.771-1.414,8.572-3.557,10.714,9.557,3,15.814,22.5,14.272,31.8-1.5,9.386-7.157,9.771-2.357,19.672,3,6.214,3.943,9.857,5.657,16.671,1.714,7.029,7.2,11.786,9.214,18.172,1.714,5.4-.9,7.157,1.8,10.114,7.2,7.843,26.229-1.414,31.843-7.457,2.186-2.357,5.871-6.386,7.114-9.214,1.286-2.743-.386-6.686.3-8.357.643-1.329,5.357-2.186,6.857-4.2,4.071-5.272-2.057-7.543-.857-13.029.9-4.5,9.214-6.814,11.571-8.957,5.914-5.314,6.257-11.186,4.8-19.157-.857-4.457-5.014-11.143-3.3-16.543,2.271-7.329,11.657-14.4,17.271-19.372,4.114-3.643,8.229-7.8,11.014-12.772,1.886-3.343,3.086-3.6,3.557-8.057.729-6.986,1.886-5.314-4.157-5.357-8.357-.043-10.843,3.129-16.671-3.214-3.343-3.729-8.743-7.2-11.914-11.357-3.129-4.072-8.314-18.171-8.314-18.171s-4.586-14.914-9.857-21.472C583.479,247.892,584.036,248.792,583.694,248.364ZM281.035,476.236c-1.2-.257-1.114-2.1-1.929-2.1.386,0-2.7,3.514-2.7,3.471,0,.557,5.529,4.8,5.957,5.014a1.651,1.651,0,0,0-.3,1.243c-9.557,0-1.929,8.4-3.428,11.872a7.514,7.514,0,0,1,2.4,0c.043.814-.428,1.286-1.371,1.371,1.586,1.629.771.686,2.271,1.029-.514-.129,6.3,8.529,7.414,9.214,5.7,3.514,11.1,1.8,16.543,1.414-.257-1.757-7.071-3.729-8.486-7.114-1.371-3.3-4.414-11.743,1.029-11.186,0-3.429,6.9-7.286,6.386-9.771-.514-2.914-7.414-1.157-5.057-6.986.771-1.843,4.543-.814,5.357-1.843.729-.9-.257-2.4.771-3.514-.686.771,3.514-6.514,2.957-3.857.986-4.757-3.557.129-2.529-6.943,6.986,2.829,8.357.257,7.286-6.214,5.786.172,12.729.386,15.386-5.229,2.829-5.957-2.614-4.629-3.643-9.814,6.429.857,8.872,3.086,13.843-1.329,2.357-2.1,4.2-10.5,6.814-10.114-.343,1.157-.557,1.286-.3,2.357,7.671-3.814,5.529-14.657,9.729-19.629,2.7-3.257,6.471-4.843,10.329-5.914,6.129-1.757,7.8-1.371,11.229-7.329,4.071-7.071,2.4-17.786,5.657-23.486,2.357-4.157,7.629-6.643,9-11.4.943-3.171.729-2.957-.043-5.914-1.757-6.343-1.671-2.143-5.657-5.314-4.329-3.343-6.086-4.071-11.443-5.1-2.871-.557-13.072.129-8.829-2.1a20.09,20.09,0,0,0-6.214-3.086c-5.229-.986-4.071.171-7.757,1.757a39.188,39.188,0,0,0,1.929-4.243,29.731,29.731,0,0,1-4.629-1.286c-1.371-.386-.6,3.043-3.386,2.7.514-1.243,5.957-8.1.857-8.1.9-9.043-7.5-9.471-13.071-10.929-4.5-1.071-14.529-5.657-14.529-10.757-2.529.9-7.114-.257-3.129-2.057-2.614-3.386-8.1,1.371-9.643,1.329-5.7-.214-8.443-4.971-13.886-6,0,2.957-1.971,2.271-3.729,4.029-.214.257.514,4.286.3,4.929-3.043-2.486-2.229-7.843.9-9.772-5.014-1.414-19.071,7.886-19.929,14.229-.471,3.514,3.214,7.2.857,12.043-1.329,2.7-6.814,8.186-9.686,9.214.514,4.5-1.371,5.357,3.257,5.7-1.929,3.343-6.429,5.357-3.857,10.843.643,1.371,3.557,1.671,4.8,3.386a39.174,39.174,0,0,1,3.172,6.086c1.629,4.029,3.129,10.714,5.743,13.757,3.557,4.071,7.8,5.271,12.257,8.743,7.5,5.871,4.714,18.429,3.514,27.643-.686,5.014-2.571,9.857-3.129,14.486-.686,5.529,0,11.314-2.229,16.5-2.486,5.786-2.314,9.171-3.857,15.643.086-.386-.043,4.286,0,3.086-.043,1.029-2.014,2.014-1.586,3.3,2.1,6.214,3.9-3.129,6-3.3a54.559,54.559,0,0,0-2.7,12.986c-1.157-1.971-1.457-.857-1.886-3.6C279.064,471.051,281.163,475.079,281.035,476.236Zm7.457-192.129c5.186-1.157,12.643-.257,17.872-2.057-2.314-2.872-9.386-1.929-13.757-2.529-2.743-.343-8.443-3.6-8.914.771-.3,2.743,2.229,4.329,4.8,3.814C289.049,283.978,288.107,284.193,288.492,284.107Zm-14.014-.9c-1.2-1.886-3.686-2.529-6.214-2.1,1.543,2.1,4.414,3.9,6.214,2.1C274.221,282.864,274.049,283.721,274.478,283.207Zm5.357-6.643c-2.229-3.643-11.529-5.829-15.472-7.329-2.571-.943-8.357-3.3-11.571-1.457-3.514,2.014-2.614,2.314,1.157,4.114,1.629.857,2.571-1.714,4.2-1.414,2.143.343,3.557,2.229,4.714,2.657C268.992,275.321,272.849,276.564,279.835,276.564ZM423.621,115.077c2.7-.429,3.686-.386,4.414,2.4a15.258,15.258,0,0,0-5.914,0l.257,1.8c6.086-1.029,1.414,2.4,4.5,3.557.686.214,7.671.9,8.014.9,5.357-.3,5.829-1.414,10.457-3.9,3.857-2.1,5.572.814,6.814-3.257.514-1.629-2.357-1.671-3-1.8,1.328-7.414-8.786-.814-13.757-1.457-.729-.043-5.186-.686-4.372-.6-2.143-.214.171-3.343-2.1-.6-5.443-1.843-6.771,3.257-5.314,2.957C424.05,115.035,423.193,115.163,423.621,115.077Zm-91.715,59.529c-1.157.729-8.057,11.871-7.586,12.686,1.071,1.8,4.757.129,6.772.729,3.043.9,3.729,2.1,6.771,3.557,4.629-7.029.3-9.429-6.514-11.614-.043.129,4.114-7.414.557-5.357Zm-16.072,6.557c-2.957-.986-4.243-2.186-7.157-1.8,2.743,1.629,4.5,5.657,7.157,1.8C315.407,181.035,315.706,181.378,315.835,181.163Zm84-80.058c.857-.3,1.757.9,2.443,1.114,5.271,1.671,5.271-.343,9.557-2.014,3.857-1.5,13.414-3.557,14.743-7.157-5.186,4.071-17.4-5.443-4.371-4.886-.557,0,5.786,6.686,7.286.9.514-2.143-4.8-7.286-6.472-8.229.943-.814,6.772,3.471,5.014-2.057-.814-2.614-2.314-2.657-5.743-1.5.643-1.029,1.329-.943,1.757-1.929a5.923,5.923,0,0,1-1.757-.771c1.843,0,7.243,2.614,9.772.943,5.786-3.857-3.557-2.486-3.557-4.329,0-.471,8.786-.9,9.386-1.929-1.843-1.843-6.686-4.971-.9-5.443.129-4.843-7.114-4.8-6.257-7.543.343-1.071,3.857-1.5,4.757-1.157,3.814,1.457.686,1.757,2.4,5.186,1.029-6.171,3.429-7.671-4.029-7.671,2.057-2.271.086-.6,3.557-2.271-2.1-3.214-7.243-.129-7.286-.171-5.314-4.286,13.457-15.9,15.214-18.129-2.4.171-4.714-.257-7.029-.3,4.843-1.029,7.586-.857,11.786-3.6,1.114-.729,7.157.043,4.414-3.986-.428-.729-6.686-.386-7.243-.3a89.09,89.09,0,0,0-11.957,2.186c-2.271.643-11.572,5.614-12.943,5.357,5.357-6.686,8.314-7.714-1.457-9.171,0,3.9-2.786,3.514-6.557,4.157.643-3.171,2.786-1.929,5.057-3-5.529-4.071-15.643,2.271-21.729,1.329,1.629-4.886,26.443-5.271,32.143-5.914V17.448c-5.7,0-8.229-.857-12.643-1.629-6.6-1.071-13.029.471-19.5-.214,4.757-3.214,14.357-1.8,21.129-1.8-.729-5.271-30.472-3.086-34.329-1.843-4.114,1.329-.429,2.7-5.571,3.257-3,.343-5.529-1.414-8.614-1.543a36.7,36.7,0,0,0-11.7,1.629c.986,1.929,3.214,1.114,3.214,3.814-1.2-.943-6.557-3.171-4.843.129-.428-.814,9.472,5.014,6.643,5.014-6.257,0-10.972-5.057-17.657-5.057,0,1.414,4.114,3.9,4.714,6-3.986-1.114-6.686-4.757-10.928-5.143,1.071,2.143,1.414,7.414-2.1,5.314,0-.043,1.671-4.329-.686-5.614-2.786-1.586-11.7,3.943-13.586,3,2.057.771,5.529,1.886,7.114,3.643-2.829-.043-5.229-1.971-8.186-2.357-1.928-.257-1.457-1.8-3.986-.557-2.486,1.157-.514,3-1.2,3.386-2.314,1.371-7.2,1.886-11.614,4.243-1.757.943-6.043.9-5.786,3.9,2.571.686,3.857,0,6.257,0,1.714,0-.086,5.614-.429,5.914-.814.686-4.543.514-5.7.814-3.043.771-8.529.429-11.614,2.271-10.114,5.914,8.529,6.429,14.014,6.429-1.114,4.543-12.343,1.2-12.343,3.814,0,1.243,4.886,2.657,5.914,2.871-.814,0-.9,0-1.157.6,1.5,1.2,4.414,3.729,6.6,2.914-.171-.3-1.114-1.2-.6-1.5,3.343-2.1,17.743-.471,21.729,2.057,5.7,3.686,10.114,11.229,10.672,18.129h1.414c-5.7,10.243,7.971,1.843,11.871,11.057-3.686.086-7.157-2.486-10.543-1.071.857,2.529-2.228,6.686,2.957,6.814,4.543.086,6-3.129.729-3.943,7.5-.9,5.7,2.014,7.8,7.286-3.386-.171-6,.429-5.914,3.686-7.457-.943.386,8.786.814,10.329-.129-.386,2.229-1.029,2.7-.086.343.814-2.443,1.714-1.671,2.443-1.157-1.114,1.329,4.157,1.029,3.429a10.236,10.236,0,0,1,3.429-1.671c-2.271,4.629,0,12.6,5.1,16.371,2.229,1.714,13.372,6.043,15.172,5.057,2.486-1.371,1.8-6.471,2.786-8.786.643-1.371-1.5-1.8-.643-3.429.428-.857,2.614-.3,3.343-1.629,3-5.529,1.157-10.8,8.7-11.443-.214-3.6.171-1.029,2.1-2.229C383.764,120.906,399.75,101.149,399.836,101.106ZM237.406,55.12c3.171,4.886,17.486,3.086,22.757,2.229,1.457,3.557,9.9,1.371,9.557-3.3-.814.386-1.586.729-2.4,1.071l-.729-2.229c3.386-.643,3.214-1.5,2.357-4.5,4.286,1.2,7.886.557,4.929-3.386-.471-.6,4.457-.129,4.457-.729,0-4.157-7.586-2.786-9.471-1.071l-.6-1.457c4.843-3.429,10.114,1.286,14.7-2.871-.9-.643-1.757-1.286-2.657-1.886,3.043.814,6,1.457,9.386.129-1.457-1.157-1.243-2.014-3.129-2.829,7.029,1.671,15.3-6,21.814-7.714-2.057-2.1-7.671-.086-11.271-.514,2.914-3.771,19.2-.129,20.229-5.357.686-3.557-14.143-4.157-17.7-3.257-1.371-1.371-7.029-2.914-10.586-3.257-1.371,4.929-17.357-2.314-16.2,3.429-4.457-1.671-14.357-2.614-17.743,2.229,3.771-.214,7.886.557,9.729,3.557-3.771-.986-8.786-3.343-12.043-3.986-3.471-.686-6.257,1.114-7.2,1.243-3.6.514-10.8,2.443-15.171,3.343l-.129,1.371c3.686,1.157,3.943,3.257,8.057,4.5,5.829,1.8,6.043-1.329,11.1-2.014-10.157,5.957,5.614,3.9,8.4,3.214,5.657-1.414,9.6-4.714,15.6-4.5a11.713,11.713,0,0,0-6.557,2.914c2.143-.343,3.986.343,6.086.343-3,2.229-12.6,2.957-16.929,3.214v1.5c2.872,1.2,4.586,3.343,8.014,3.3-5.057,1.371-12.643-3.6-18.343-4.329.471,4.843,9.129,8.743,14.057,8.486-1.157,1.329-1.629,2.314-2.571,3.429-8.486-8.357-21.214,4.586-5.486,1.757-.814.471-1.671.9-2.529,1.371,1.8,3,5.229,2.014,7.714-.6-2.871,7.714-11.4.386-16.629,1.071C242.421,52.42,240.363,53.791,237.406,55.12Zm1.329-9.686c.857-1.029,2.357-.386,1.929-3.129,9.514,1.414,7.286-4.414,1.414-8.143.3.257-19.243-9.6-18.772-6.729,1.371.3,2.657-.729,2.957,1.029.043.257-5.229.943-5.786.9a9.259,9.259,0,0,1,2.057,2.529c-1.414-.214-2.657.214-3.986.129a15.584,15.584,0,0,0-1.071,4.629c3.557,3.6,8.786.557,12.643,3.729-2.314.171-4.629,1.329-6.814,1.629C227.72,45.948,233.549,47.448,238.735,45.434Zm-7.714,5.057c-.429.686-.9,1.371-1.371,2.1a8.488,8.488,0,0,0,6.729-.471C234.963,49.506,233.592,49.977,231.02,50.491Zm2.357,18c2.957-.6,35.829,2.1,30.986-5.486-2.871-4.543-15.857.343-19.843.257-8.314-.214-9.472-8.829-16.886-6.643C230.378,61.377,227.506,66.434,233.378,68.491Zm-20.657.6h2.1C213.877,66.863,213.877,68.62,212.72,69.091Zm4.586-3.729c1.543,1.371,9.643,5.1,8.786-.129C225.449,60.949,218.72,63.006,217.306,65.363Zm7.329-6.386c3.3-3.471-1.543-5.914-5.057-5.357C212.335,54.777,221.292,59.02,224.635,58.977Zm-6.086-7.157a32.279,32.279,0,0,0,7.843-1.029V49.334C223.092,48.863,219.535,48.606,218.549,51.82Zm.557-3.729c7.457-1.8-4.971-5.186-7.286-4.457C212.849,47.191,215.292,49.334,219.106,48.091Zm-8.314-11.1c-1.071-2.1-1.843-3.214-4.586-2.7v1.757C208.177,36.906,208.949,37.334,210.792,36.991Zm-1.929,12.771c2.186-7.457-12.514-11.014-18.043-8.957,2.143.9,3.214,2.572,4.8,3.9h-2.529C195.277,47.706,204.62,48.134,208.863,49.763Zm-5.657.3c-1.886-.729-2.443-1.843-4.757-1.2C199.306,51.434,200.806,50.577,203.206,50.063Zm-1.371,12.943c3.043-1.5,4.886-.343,5.529,3.129,3.986-.171,6.943-1.543,6.471-5.786-.514-4.671-5.229-2.7-9.429-4.329a12.767,12.767,0,0,1,3.857,4.157,36.8,36.8,0,0,0-7.029-2.657c.3,1.243.343,2.4.771,3.686-2.786-2.1-3.986-5.571-7.886-5.957C193.692,59.749,197.763,62.02,201.835,63.006Zm-8.614,1.2c.343.214,3.257,3.6,3.257.129C196.477,62.363,193.649,64.206,193.22,64.206Zm1.029-11.186a8.936,8.936,0,0,0-4.286-3.857C190.134,52.163,191.592,53.834,194.249,53.02Zm77.572,53.443c2.143.6,8.014-.129,5.957-3.514C275.935,99.949,269.249,102.22,271.821,106.463Zm-48.086-25.2c.857-1.586,2.314-.986,2.271-3.386,4.114,1.457,5.829-2.186,8.014-5.186-3.043-1.157-9.514-3.257-12.214-1.329C219.363,73.12,218.335,82.806,223.735,81.263ZM210.62,85.892c6.857,0,8.229-6.171,1.629-9.214,5.014-1.586,1.114-4.629-1.757-5.571-.514-.129-4.5,2.014-6.857,1.586,4.2,4.371.943,7.157-3.686,4.586C200.163,80.277,207.877,84.477,210.62,85.892Zm-16.672-9.343c1.286-4.114-3.9-4.929-6.386-2.657C189.92,76.077,191.549,77.577,193.949,76.549Zm-9.814-3.429c.257.257,1.886,2.143,0,0ZM169.692,46.034h10.586C178.434,42.091,172.563,43.248,169.692,46.034Zm3,6.557c3-.043,6.771-.343,4.157-3.257,1.243-.557,1.714-.043,2.571-1.5-3.471-.343-6.943-.171-9.857,1.757C170.163,51.606,171.192,51.863,172.692,52.591Zm-5.229-2.7c-.9-1.886-1.157-3.171-3.986-2.7C164.12,49.677,165.363,49.42,167.463,49.891Zm-2.957,7.457c-4.243,1.243-8.443,5.571-5.486,7.971,2.657,2.143,12.3-.086,15.6.214-1.114,1.329-8.057.043-7.586,2.443.6,2.786,5.786,1.071,7.5.729,3.643-.643,17.314-2.443,16.286-7.5.386,1.971-8.957-5.143-8.143-4.929-4.371-1.243-6,1.286-3.729,5.229.814.343,2.186-.171,2.443.857C181.82,63.949,166.734,58.12,164.506,57.349Zm.857-2.829c.986.429,1.286,1.971,3.6,1.5l-.129-1.5A6.806,6.806,0,0,1,165.363,54.52Zm-11.872,6.386-1.5,1.8c3.257-.043,2.614.557,4.371-2.529Zm4.757-3.729c2.486-.857,3.771-2.829,4.157-5.614-9-2.229-11.871,6.043-20.1,6.943,3.857,5.871,9.643.557,13.114-2.657C156.32,58.463,157.306,56.62,158.249,57.177Zm2.057,38.829c6.471-.514,6.643,2.871,11.657,4.2,4.972,1.371,8.786-2.143,13.2-3,2.7-.471,20.357,2.4,14.143-2.529,2.486.043,3.3-1.243,4.8-1.929-5.486-3.771-7.757-3.729-10.5-8.957-1.072-2.057-5.7-11.914-9.472-7.2-1.714,2.186,4.586,7.286-.129,6.943-2.4-.214-2.229-6.6-6.686-6.857.514.943.943,2.014,1.457,3a26.077,26.077,0,0,1-4.714,1.457,29.025,29.025,0,0,0,.986-2.914,9.371,9.371,0,0,0-8.314.557c1.457-5.571-3.814-2.914-6.557-1.714-4.886,2.186-5.057,3.257-7.286,7.071,3.3,1.286,6.814-.814,9.814,1.457a12.7,12.7,0,0,0-6.514,2.571c3.3,1.8,14.014-.9,15.771,2.057.6,1.114-11.786,1.671-13.714,2.829C158.934,94.034,159.663,95.02,160.306,96.006Zm24.857,5.829c2.7-.729,4.371-1.286,4.971-3.557a23.633,23.633,0,0,0-7.929,2.957ZM143.677,85.763c5.272.771,7.372-6.257,11.957-8.571,7.414-3.814,9.214-4.971-.3-6.9-2.443-.514-14.7-3.386-17.229-1.243-1.414,1.2-1.843,9.943-4.972,13.457a9.048,9.048,0,0,1,8.014,5.357ZM19.691,139.635c-3.086-4.071-6.257.557,0,0Zm50.015-3.257c.729-4.757,7.029,1.071,10.286,2.057,4.243,1.243,8.271.3,12.343,1.629,7.243,2.4,12.257,8.957,19.5,10.286a15.328,15.328,0,0,0,2.357,4.157c.386.429,3.514,1.8,3.9,2.486,2.529,3.814,3.986,7.457,6.129,10.372,3.857,5.186,5.357,5.7,10.8,8.957,3.943,2.314,8.657,6.3,8.057,11.829-4.457-5.4-9.086-12.943-16.671-12.086,3.557,4.329,8.829,5.829,11.1,11.186,2.314,5.529-.686,10.886-.686,15.429-.086,8.614,4.286,20.572,10.157,27,3.386,3.729,8.614,3.9,11.7,8.7,2.529,3.814,4.671,8.657,6.986,12.6.814,1.243-.943,1.886.857,4.5,1.071,1.586,4.114,3.043,5.571,4.543.986.986,5.871,6.771,6.257,8.957,4.629-4.714-13.329-21.086-13.843-27.857,5.014-.6,10.757,10.843,14.443,14.829,4.714,5.057,9,11.914,13.843,17.443-7.029,4.8,20.872,15.172,25.457,15.814,1.371.214,2.914-1.5,5.486-.729,2.914.814,4.2,3.943,6.557,5.314,2.357,1.457,9.986,2.7,10.243,2.4,4.071,2.829,6.129,8.4,8.271,10.457,3.086,2.829,10.114,5.014,14.529,6.943-1.243-7.543,7.029-.686,7.329-3.172.686-4.971-10.329-1.843-13.371-3.857-7.372-4.929.514-10.457-3.257-15.943-3.214-4.671-11.443-.986-15.429-2.743,3.514-3.857,8.786-16.072,1.2-15.6-6.857.471-3.514,5.229-7.757,8.572-3.9,3.086-10.157,1.114-13.2-1.543-6.729-5.914-6.471-22.157-2.443-28.072,5.529-8.143,14.314-.257,20.4-2.186-1.457-5.1,4.329-4.371,7.929-4.114-.343-.043,8.186,1.586,7.114.857,2.7,1.886,7.029,15.9,9.857,15.643,3.386-.3-2.614-18.9,1.929-24.129,2.957-3.429,9.086-4.243,10.843-8.271,1.543-3.429-.643-5.1-1.629-9.386,2.529.686,1.243-1.371,3.857,1.371.986-2.1,3.043-7.671,4.586-9.129,1.843-1.671,6.729-2.014,9.857-2.914-4.543-8.614,12.772-14.786,19.2-13.286-.857-.171-6.214,1.929-6.986,3.429-2.271,4.586,4.029.643,4.243.643,5.357-.643,11.357-4.714,13.029-9.557-4.286,2.057-5.486,5.486-10.714,2.7-6.986-3.771-.257-7.114-1.843-9.6-4.414-6.814-15.472,5.486-20.057,8.443a19.146,19.146,0,0,1,4.757-5.871c-1.114-.257-2.314-.557-3.428-.857,5.829,1.286,9.171-6,14.143-7.414,3.3-.943,7.929.257,11.271,0,5.229-.471,4.671-1.071,9.129-3,4.029-1.714,10.5-2.314,8.571-7.5-1.971-5.314-8.871-1.543-13.029-1.157,1.971-3.343,6-2.614,9.043-5.186-5.229-.814-9.943-2.829-12.943-7.457,3.257-1.929-5.914-11.829-7.543-15.429-2.657,2.914-2.657,7.629-6.9,8.571-4.071.9-3.557-3.386-8.143-2.186,2.871-9.943-5.143-13.372-12.9-15.343-8.786-2.271-14.657,2.186-8.4,11.314h-2.1c-.686,1.543-.214,2.529-1.157,4.2,8.229,3.429,6.343,15.943-3.129,15.557,2.7,2.957,5.143,13.886-.9,14.4-5.871.471-7.243-10.929-6.686-15.257-6.771-1.114-10.886-2.1-16.757-5.1-2.572-1.329-5.657-2.271-7.929-3.257-2.057-.857-2.571,1.029-4.329-.043-1.329-.814-1.543-3.771-2.443-4.843-3-3.729-4.543-1.629-3.943-7.672.171-2.529,2.7-6.471,4.5-8.314,1.929-1.929,6.429-2.486,6-5.314-.343-1.8-7.714-2.871-9.172-3.429,3.857.386,11.014,3.986,12.043-.857,4.543,2.7,6.643-.343,7.886-4.2-4.114.3-7.2-1.714-10.714-3.386,2.657.086,18.086,3.857,11.743-2.871,6.857-.514,2.186,10.457-.857,11.614,2.486,2.7,3.472,3.386,7.286,3.3a23.44,23.44,0,0,1,4.586-1.929c1.329-.214,2.786,1.329,3.9,1.157,8.529-1.414-8.271-7.329-9.686-10.414,3.857-.129,1.5-.086,3.086-2.057,5.871-.429,8.572-5.4,4.629-10.286,7.971-1.329-1.886-6.557-4.714-7.886,4.886-.729,10.114,1.586,15.3-.3-.814-.729-1.586-1.457-2.4-2.229,5.443,1.586,9.214,4.886,13.972,8.443,2.014,1.5,5.743,3.771,5.871,6.814.172,4.029-7.5,3.857-4.071,9-2.829.643-12.943-1.586-12.514,3.429.471,4.886,7.886-.471,9.772-.214,6,.686,6.428,4.843,10.243,7.971,3.771,3.043,9.772,2.614,14.229,5.014.171-3.729-5.614-5.614-7.714-8.914,3.9,1.929,7.843,3.9,11.572,6.086a38.918,38.918,0,0,0,1.629-5.057c-3.643-3.471-7.843-6.6-11.4-11.271,2.7-3.986,3.729-1.243,6.943.429,5.1,2.7,2.871,4.243,6.943,3.129-.3.086,5.014-4.2,4.971-4.157,1.714-3.214,2.014-.814-.3-3.729-2.314-2.957-25.029-9.257-13.672-11.614-1.157-.3-2.271-.6-3.428-.9a5.538,5.538,0,0,1,2.1-1.329c-1.757-.729-2.443-2.1-4.629-2.529.343-.557.686-1.071,1.071-1.629-4.2-.9-6.171-1.843-9.986-2.829l2.057-1.371c-7.543-.171-7.972-4.457-13.243-6.086-3.986-1.243-11.743,3.257-13.457,2.314-2.657-1.371.686-2.786-1.029-5.271-2.957-4.243-2.529-3.686-7.286-2.829-7.2,1.329-6.857,7.114-3.214,11.871-7.5.986-6.471-10.243-1.071-12.9-5.743-.257-11.1.386-13.372,6.514-3.129,8.314,3.086,4.543,6.086,8.957-2.186-.557-3.471.343-5.486.257,1.843,2.657,10.157,3.514,13.714,4.629-2.186.857-3.343,15.514-9.086,12.514-2.614-1.329.086-5.443,0-5.529-2.314-2.571-4.414-1.543-5.186-1.971-.986-.557-5.357-1.972-7.114-4.543-2.357-3.514-3-13.243-10.286-8.143-6.857,4.757,7.372,13.371-.643,11.7,1.2,3.343,3.729,3.171,6.557.6-.086,5.1-6.771,3.343-4.757,9.214-3.386-2.271-2.571-1.329-2.4-4.757-3.129-.857-.6-.171-2.229-2.529h1.929c.171-3.343-2.057-5.357-5.357-5.957-.814.857-2.786,2.957-3.557,3.857,1.543.6,2.786,2.229,4.329,2.829-3.557,6.429-10.457,3.514-16.372,2.186-3.857-.9-4.329-2.4-8.057-.857-5.486,2.314-2.914,2.7-3.729,8.186-2.4-8.657-13.886-5.743-20.829-6.386.6-.343,1.243-1.8,3.257-2.529-3.429-2.786-14.957-6.043-19.029-6.857-5.057-.943-9.986,4.243-11.871-1.886-1.5,4.971-2.529,1.8-4.886,1.671-.729-.043-1.586-3.343-3.343-3.557-2.314-.257-.857,1.5-2.186,1.714-2.571.6-9.729,4.457-12.814,6.257,2.7-3.6,7.157-3.086,9.771-6.257-5.014,0-10.971,2.743-15.986,3.814-8.443,1.757-11.829-1.757-20.443-2.7-6.514-.729-12.471-2.057-19.2-2.614-7.114-.557-10.8-3.129-18.171-2.229l.771-1.629c-4.5-.857-10.629,2.057-14.657,3.257-5.529,1.671-5.871,5.014-9.729,7.371-5.486,3.343-9.386-.214-5.014,5.571,2.786,3.686,8.786,4.157,10.757,8.914-3.129,1.071-6.514.9-6.686-2.657-3.557,2.529-7.586,1.629-10.543,5.186,3.857,1.586,3.814,4.757,7.114,5.571,3.814.986,8.829-1.629,12.386-1.971.514,10.886-12.129,3.171-13.971,12.857-.471,2.571,5.529,13.457,9.386,7.114a6.342,6.342,0,0,1,1.757,7.114c3.771-.771,7.971.514,9.814-1.8,1.2,0,2.743.343,4.329.3-2.829,12.472-17.014,10.414-23.657,18,9.643,2.357,25.629-12.3,33.9-16.972-.729-1.071-1.457-2.143-2.229-3.257,5.1-1.671,6.943-10.071,12.814-6.257-4.114.471-6.429,2.957-5.229,6.857a23.2,23.2,0,0,1,9.986-3.6ZM57.534,148.549v-2.657c-3,2.186-7.414,2.786-4.929,6.686A10.8,10.8,0,0,0,57.534,148.549Z" transform="translate(-14.205 -10.439)" fill="#886cfe" opacity="0.5"/>
</svg>
